<?xml version="1.0" encoding="UTF-8"?>
<svg width="243px" height="48px" viewBox="0 0 243 48" version="1.1" xmlns="http://www.w3.org/2000/svg" xmlns:xlink="http://www.w3.org/1999/xlink">
    <!-- Generator: Sketch 40.3 (33839) - http://www.bohemiancoding.com/sketch -->
    <title>logo_l</title>
    <desc>Created with Sketch.</desc>
    <defs></defs>
    <g id="Welcome" stroke="none" stroke-width="1" fill="none" fill-rule="evenodd">
        <g id="Artboard" transform="translate(-794.000000, -98.000000)" fill="#3D1101">
            <path d="M806.671,121.89 C803.731,128.554 798.782,135.953 794.372,140.363 C796.381,141.49 799.958,143.842 801.624,145.214 C805.789,140.118 811.179,131.837 814.756,124.487 L806.671,121.89 Z M820.146,124.928 C824.066,131.298 829.701,139.775 832.102,144.969 L839.746,140.804 C836.904,135.61 830.877,127.476 827.055,121.596 L820.146,124.928 Z M817.745,111.061 L823.723,108.856 C822.645,106.21 820.391,102.094 818.823,99.105 L811.277,101.653 C812.649,104.593 814.462,108.415 815.393,111.061 L795.058,111.061 L795.058,118.509 L840.089,118.509 L840.089,111.061 L817.745,111.061 Z M871.4,129.142 L871.4,125.761 L878.946,125.761 L878.946,129.142 L871.4,129.142 Z M864.638,125.761 L864.638,129.142 L857.288,129.142 C857.435,128.015 857.533,126.839 857.582,125.761 L864.638,125.761 Z M867.725,107.484 C867.186,108.464 866.549,109.444 865.961,110.326 L857.239,110.326 C858.023,109.395 858.709,108.464 859.395,107.484 L867.725,107.484 Z M857.631,116.5 L864.638,116.5 L864.638,119.832 L857.631,119.832 L857.631,116.5 Z M878.946,119.832 L871.4,119.832 L871.4,116.5 L878.946,116.5 L878.946,119.832 Z M886.002,110.326 L873.703,110.326 C875.124,108.366 876.447,106.357 877.476,104.642 L872.625,101.408 L871.498,101.702 L862.972,101.702 C863.217,101.212 863.511,100.673 863.756,100.183 L856.161,98.811 C853.956,103.662 849.987,109.052 843.862,113.07 C845.479,114.148 847.831,116.647 848.909,118.313 C849.546,117.823 850.134,117.382 850.722,116.892 L850.722,123.36 C850.722,129.24 850.134,136.247 843.029,140.951 C844.45,141.931 847.096,144.577 848.076,145.949 C852.192,143.205 854.593,139.334 855.965,135.218 L878.946,135.218 L878.946,137.864 C878.946,138.795 878.554,139.089 877.476,139.089 C876.398,139.089 872.184,139.138 869.097,138.942 C870.126,140.706 871.4,143.793 871.743,145.753 C876.594,145.753 880.073,145.655 882.621,144.577 C885.12,143.499 886.002,141.637 886.002,138.011 L886.002,110.326 Z M917.362,112.678 L913.246,112.678 L913.246,108.366 L917.362,108.366 L917.362,112.678 Z M929.024,119.195 L929.024,124.83 C928.828,124.879 928.583,124.928 928.191,124.928 L925.447,124.928 C924.222,124.928 924.075,124.781 924.075,122.968 L924.075,119.195 L929.024,119.195 Z M902.417,136.296 L902.417,130.073 C903.201,130.955 903.887,131.886 904.279,132.523 C911.041,129.632 912.903,124.291 913.197,119.195 L917.362,119.195 L917.362,123.017 C917.362,129.534 918.538,131.543 924.271,131.543 L928.926,131.543 L929.024,131.543 L929.024,136.296 L902.417,136.296 Z M906.876,119.195 C906.631,121.89 905.749,124.389 902.417,126.398 L902.417,119.195 L906.876,119.195 Z M937.697,108.366 L937.697,101.506 L893.107,101.506 L893.107,108.366 L906.925,108.366 L906.925,112.678 L895.508,112.678 L895.508,145.459 L902.417,145.459 L902.417,142.813 L929.024,142.813 L929.024,145.459 L936.276,145.459 L936.276,112.678 L924.075,112.678 L924.075,108.366 L937.697,108.366 Z M955.827,109.689 C954.749,110.816 953.524,111.845 952.103,112.825 C951.27,112.139 950.143,111.306 949.114,110.718 C949.457,110.375 949.8,110.032 950.143,109.689 L955.827,109.689 Z M959.894,105.769 L958.865,106.014 L956.513,106.014 L956.513,104.887 L964.206,104.887 L964.206,100.82 L956.513,100.82 L956.513,99.105 L950.584,99.105 L950.584,105.573 L947.693,105.034 C946.272,106.994 943.92,109.15 940.735,110.767 C941.862,111.502 943.528,113.266 944.312,114.442 C944.802,114.148 945.243,113.854 945.684,113.511 C946.419,114.05 947.252,114.687 947.938,115.275 C945.978,116.206 943.92,116.99 941.911,117.529 C943.038,118.558 944.557,120.518 945.292,121.792 C952.838,119.293 960.188,114.785 963.765,107.827 L959.894,105.769 Z M953.524,125.369 C955.19,124.634 956.807,123.801 958.375,122.919 L958.375,124.732 L970.527,124.732 L970.527,123.066 C972.144,123.899 973.859,124.634 975.574,125.369 L953.524,125.369 Z M977.681,136.541 C977.142,137.031 976.603,137.472 976.064,137.913 C974.741,137.423 973.369,136.982 971.997,136.541 L977.681,136.541 Z M957.395,139.089 L957.395,136.541 L964.99,136.541 L963.324,138.452 L963.814,138.599 L957.395,139.089 Z M957.395,132.131 L972.193,132.131 L972.193,133.062 L957.395,133.062 L957.395,132.131 Z M957.395,128.897 L972.193,128.897 L972.193,129.73 L957.395,129.73 L957.395,128.897 Z M960.727,121.498 C961.854,120.812 962.932,120.028 963.961,119.244 C965.088,120.028 966.313,120.763 967.587,121.498 L960.727,121.498 Z M976.897,105.279 C976.211,106.161 975.427,106.994 974.496,107.778 C972.634,106.847 970.723,106.014 969.008,105.279 L976.897,105.279 Z M986.06,114.687 C984.492,113.413 982.287,111.992 979.886,110.62 C982.14,108.268 983.904,105.377 985.08,101.947 L981.209,100.379 L980.131,100.575 L965.48,100.575 L965.48,105.279 L968.665,105.279 L964.843,109.003 C966.264,109.64 967.734,110.326 969.253,111.11 C968.273,111.551 967.244,111.943 966.215,112.237 C966.558,112.58 966.901,113.021 967.293,113.462 L964.157,111.845 C959.208,117.382 949.751,121.498 941.127,123.703 C942.499,125.075 944.018,127.182 944.753,128.701 C946.713,128.064 948.673,127.378 950.633,126.594 L950.633,137.668 C950.633,139.579 949.898,140.363 949.016,140.804 C949.8,141.735 950.78,144.185 951.025,145.557 C952.348,144.969 954.406,144.577 966.215,143.45 C966.117,142.421 966.166,140.755 966.264,139.334 C972.095,141.196 978.759,143.891 982.287,145.998 L985.619,141.98 C984.394,141.294 982.826,140.559 981.111,139.873 C982.532,138.844 984.002,137.766 985.423,136.688 L980.572,133.65 C980.082,134.189 979.543,134.777 978.906,135.365 L978.906,126.692 C980.768,127.378 982.581,127.917 984.296,128.407 C985.129,126.937 986.893,124.585 988.167,123.409 C981.209,121.939 972.879,119.097 967.734,116.108 C967.979,115.814 968.273,115.52 968.567,115.226 C969.008,115.912 969.4,116.549 969.645,117.088 C971.605,116.353 973.418,115.471 975.133,114.442 C977.828,116.059 980.18,117.676 981.748,119.048 L986.06,114.687 Z M1006.395,123.752 L1006.395,122.478 L1008.943,122.478 L1008.943,123.654 L1006.395,123.752 Z M1008.943,113.511 L1008.943,114.638 L1006.395,114.638 L1006.395,113.511 L1008.943,113.511 Z M1006.395,117.921 L1008.943,117.921 L1008.943,119.195 L1006.395,119.195 L1006.395,117.921 Z M1014.088,113.511 L1015.656,113.511 L1015.656,109.248 L1000.172,109.248 L1000.172,113.511 L1001.544,113.511 L1001.544,123.948 L999.535,123.997 L999.878,128.75 C1002.622,128.554 1005.709,128.358 1008.943,128.162 L1008.943,132.572 L1006.836,128.603 C1004.729,129.142 1001.593,129.534 998.849,129.681 C999.339,125.173 999.437,120.763 999.437,117.186 L999.437,107.582 L1036.089,107.582 L1036.089,102.192 L1018.155,102.192 C1017.518,100.869 1016.587,99.448 1015.656,98.321 L1009.531,100.673 C1009.874,101.163 1010.217,101.653 1010.511,102.192 L993.067,102.192 L993.067,117.235 C993.067,124.487 992.871,134.875 989.686,141.882 C991.107,142.519 993.949,144.577 995.076,145.753 C997.036,141.686 998.114,136.296 998.751,130.955 C999.045,131.837 999.29,132.817 999.388,133.503 C1000.123,133.552 1000.956,133.552 1001.789,133.552 L1001.789,134.826 L999.535,134.826 L999.535,138.452 L1001.789,138.452 L1001.789,140.118 L998.114,140.314 L998.555,144.577 C1001.593,144.332 1004.876,144.038 1008.306,143.695 L1008.208,139.726 L1006.052,139.873 L1006.052,138.452 L1008.159,138.452 L1008.159,134.826 L1006.052,134.826 L1006.052,133.209 C1007.081,133.111 1008.061,132.964 1008.943,132.768 L1008.943,145.606 L1014.088,145.606 L1014.088,142.715 L1017.42,144.234 C1018.792,142.127 1019.331,138.795 1019.625,135.659 L1015.264,134.434 C1015.117,136.443 1014.725,138.501 1014.088,140.265 L1014.088,113.511 Z M1029.67,119.93 L1030.993,119.93 L1030.993,122.331 L1029.67,122.331 L1029.67,119.93 Z M1026.191,122.331 L1024.917,122.331 L1024.917,119.93 L1026.191,119.93 L1026.191,122.331 Z M1021.438,122.331 L1020.213,122.331 L1020.213,119.93 L1021.438,119.93 L1021.438,122.331 Z M1035.452,114.736 L1035.452,110.032 L1028.396,110.032 L1028.396,108.268 L1022.467,108.268 L1022.467,110.032 L1015.999,110.032 L1015.999,114.736 L1022.467,114.736 L1022.467,116.157 L1016.195,116.157 L1016.195,126.153 L1035.207,126.153 L1035.207,116.157 L1028.396,116.157 L1028.396,114.736 L1035.452,114.736 Z M1025.211,141.049 C1024.623,141.049 1024.525,140.951 1024.525,139.922 L1024.525,135.953 C1025.113,136.737 1025.603,137.521 1025.897,138.158 L1029.523,136.002 C1030.062,137.129 1030.601,138.354 1031.042,139.579 C1029.768,139.236 1028.151,138.599 1027.416,137.962 C1027.318,140.706 1027.122,141.049 1026.485,141.049 L1025.211,141.049 Z M1036.726,141.833 C1036.383,139.481 1034.913,136.002 1033.345,133.356 L1029.327,134.777 C1028.739,133.895 1027.857,132.866 1026.975,131.935 L1036.53,131.935 L1036.53,127.329 L1015.313,127.329 L1015.313,131.935 L1023.202,131.935 L1021.781,132.768 C1022.369,133.307 1022.957,133.944 1023.496,134.63 L1019.674,134.63 L1019.674,139.922 C1019.674,144.038 1020.458,145.361 1024.378,145.361 L1027.122,145.361 C1029.67,145.361 1030.895,144.381 1031.483,140.902 C1031.777,141.882 1031.973,142.764 1032.071,143.548 L1036.726,141.833 Z" id="logo_l"></path>
        </g>
    </g>
</svg>